<svg xmlns="http://www.w3.org/2000/svg" width="16" height="13" viewBox="0 0 16 13"><g><g><path fill="#6e6e6e" d="M7.5 10.183c.768 0 1.39.627 1.39 1.4 0 .774-.622 1.401-1.39 1.401-.768 0-1.39-.627-1.39-1.4 0-.774.622-1.401 1.39-1.401zm5-.031c.785 0 1.422.64 1.422 1.432 0 .79-.637 1.432-1.422 1.432a1.427 1.427 0 0 1-1.422-1.432c0-.791.637-1.432 1.422-1.432zm2.796-9.099c.528.167.822.731.657 1.263l-1.808 5.26c-.342 1.055-.953 1.491-2.175 1.491H8.127c-.938 0-1.493-.5-2.081-1.49L3.25 2.016H1c-.552 0-1-.451-1-1.008 0-.556.448-1.007 1-1.007h2.657c.413 0 1.174.373 1.363.956 0 0 1.524 3.257 2.44 5.056.329.755.789 1.039 1.477 1.039h2.125c.8 0 1.182-.224 1.477-1.03.508-1.797 1.503-4.31 1.503-4.31a.999.999 0 0 1 1.253-.66zm0 0c-.526-.166.528.167 0 0-.526-.166.528.167 0 0-.526-.166.528.167 0 0z"/></g></g></svg>