<svg xmlns="http://www.w3.org/2000/svg" width="16" height="16" viewBox="0 0 16 16"><g><g><path fill="#6e6e6e" d="M15.66 7.147l-3.047 3.139.707 4.354c.07.439-.113.879-.474 1.136a1.152 1.152 0 0 1-1.222.067L8 13.829l-3.623 2.014a1.155 1.155 0 0 1-1.223-.067 1.163 1.163 0 0 1-.473-1.136l.706-4.354-3.046-3.14A1.163 1.163 0 0 1 .993 5.19l4.156-.638L6.956.681a1.153 1.153 0 0 1 2.088 0l1.807 3.871 4.156.638c.427.066.782.367.92.779.137.413.034.867-.268 1.178zm-.827-.81l-4.156-.639a1.154 1.154 0 0 1-.87-.653L8 1.175l-1.807 3.87c-.163.35-.49.595-.87.653l-4.156.639 3.046 3.14c.255.262.371.632.312.995l-.707 4.356 3.624-2.014a1.153 1.153 0 0 1 1.116 0l3.623 2.014-.706-4.356a1.163 1.163 0 0 1 .313-.996z"/></g></g></svg>